<?xml version="1.0" standalone="no"?>
<!DOCTYPE svg PUBLIC "-//W3C//DTD SVG 20010904//EN"
 "http://www.w3.org/TR/2001/REC-SVG-20010904/DTD/svg10.dtd">
<svg version="1.0" xmlns="http://www.w3.org/2000/svg"
 width="225.000000pt" height="225.000000pt" viewBox="0 0 225.000000 225.000000"
 preserveAspectRatio="xMidYMid meet">

<g transform="translate(0.000000,225.000000) scale(0.100000,-0.100000)"
fill="#000000" stroke="none">
<path d="M1153 1555 c-40 -17 -56 -48 -56 -104 0 -59 38 -94 120 -111 80 -17
95 -26 91 -58 -6 -57 -99 -65 -155 -13 -21 19 -21 19 -47 -8 l-27 -28 30 -26
c66 -55 185 -57 247 -3 22 18 28 34 32 79 4 52 2 58 -25 85 -21 21 -46 33 -89
42 -87 17 -92 19 -100 42 -15 49 68 68 129 29 l31 -19 18 23 c26 34 23 40 -31
64 -57 24 -121 27 -168 6z"/>
<path d="M1805 1551 c-64 -33 -88 -78 -93 -174 -3 -72 -1 -88 20 -127 45 -85
165 -116 239 -61 29 21 29 21 29 1 0 -16 6 -20 35 -20 l35 0 0 110 0 110 -85
0 -85 0 0 -35 c0 -35 0 -35 46 -35 42 0 45 -1 38 -22 -10 -35 -23 -47 -61 -57
-43 -12 -95 6 -112 38 -34 62 -20 164 26 201 46 36 128 19 145 -31 3 -9 12 -9
41 0 l38 13 -18 30 c-30 52 -66 72 -136 76 -48 2 -71 -2 -102 -17z"/>
<path d="M160 1525 l0 -35 60 0 60 0 0 -160 0 -160 40 0 40 0 0 160 0 160 60
0 60 0 0 35 0 35 -160 0 -160 0 0 -35z"/>
<path d="M540 1365 l0 -195 40 0 40 0 0 195 0 195 -40 0 -40 0 0 -195z"/>
<path d="M720 1365 l0 -195 40 0 40 0 0 70 0 70 81 0 c89 0 128 15 151 58 20
38 16 106 -8 139 -34 46 -59 53 -186 53 l-118 0 0 -195z m221 115 c22 -12 27
-68 7 -88 -7 -7 -40 -12 -80 -12 l-68 0 0 55 0 55 61 0 c33 0 69 -5 80 -10z"/>
<path d="M1450 1315 l0 -36 98 3 97 3 0 30 0 30 -97 3 -98 3 0 -36z"/>
<path d="M645 958 c-2 -7 -20 -57 -39 -110 l-34 -98 23 0 c16 0 25 7 29 25 6
22 12 25 51 25 39 0 47 -3 55 -25 6 -16 17 -25 31 -25 13 0 19 5 16 13 -2 6
-19 56 -38 109 -32 92 -36 98 -62 98 -15 0 -30 -6 -32 -12z m48 -73 l16 -45
-30 0 c-16 0 -29 3 -29 6 0 10 23 84 26 84 1 0 9 -20 17 -45z"/>
<path d="M820 860 l0 -110 70 0 c63 0 70 2 70 20 0 17 -7 20 -50 20 l-50 0 0
90 c0 83 -1 90 -20 90 -19 0 -20 -7 -20 -110z"/>
<path d="M999 860 c23 -100 27 -110 47 -110 24 0 32 19 50 108 4 18 9 32 13
32 4 0 15 -31 25 -70 15 -62 20 -70 41 -70 21 0 25 8 45 98 12 53 23 103 25
110 3 7 -4 12 -15 12 -19 0 -23 -9 -47 -115 l-9 -40 -12 35 c-6 19 -16 54 -22
78 -8 31 -16 42 -30 42 -15 0 -22 -15 -36 -75 -10 -41 -20 -72 -24 -70 -4 2
-13 36 -20 75 -12 61 -16 70 -35 70 l-22 0 26 -110z"/>
<path d="M1298 860 c-34 -103 -35 -110 -17 -110 12 0 23 10 29 25 8 22 16 25
55 25 39 0 45 -3 51 -25 4 -18 13 -25 29 -25 l23 0 -36 110 c-36 108 -37 110
-67 110 -30 0 -31 -2 -67 -110z m87 13 c6 -32 5 -33 -24 -33 l-30 0 16 46 c17
49 25 46 38 -13z"/>
<path d="M1502 863 c3 -100 4 -108 23 -108 17 0 20 7 20 42 0 48 6 57 34 48
12 -3 25 -23 34 -48 10 -30 20 -43 35 -45 26 -4 26 -7 6 51 -9 26 -21 47 -27
47 -6 0 -1 10 11 23 12 13 22 33 22 44 0 39 -26 53 -96 53 l-65 0 3 -107z
m113 47 c0 -21 -5 -26 -32 -28 -31 -3 -33 -1 -33 28 0 29 2 31 33 28 27 -2 32
-7 32 -28z"/>
</g>
</svg>
